<svg xmlns="http://www.w3.org/2000/svg" viewBox="0 0 880 480" width="880" height="480">

  <rect x="20" y="20" width="840" height="400" fill="#f5f5f5" stroke="#666" stroke-width="2" stroke-dasharray="6 4"/>
  <text x="28" y="35" font-family="Consolas,monospace" font-size="11" fill="#666">围栏 38.57 × 20.29 m</text>

  <rect x="40" y="40" width="800" height="320" fill="#7cb342" fill-opacity="0.20" stroke="#558b2f" stroke-width="1.5"/>
  <rect x="40" y="40" width="400" height="320" fill="#bbdefb" fill-opacity="0.30"/>
  <rect x="440" y="40" width="400" height="320" fill="#ffe082" fill-opacity="0.30"/>
  <text x="240" y="56" font-family="Consolas,monospace" font-size="13" font-weight="bold" fill="#0d47a1" text-anchor="middle">X &lt; 0 半场（active_half = -1）</text>
  <text x="640" y="56" font-family="Consolas,monospace" font-size="13" font-weight="bold" fill="#bf360c" text-anchor="middle">X &gt; 0 半场（active_half = +1）</text>

  <rect x="180" y="104" width="520" height="192" fill="#7cb342" fill-opacity="0.45" stroke="#33691e" stroke-width="1.5"/>

  <line x1="40" y1="77" x2="840" y2="77" stroke="#1565c0" stroke-width="1.5" stroke-dasharray="6 3"/>
  <line x1="40" y1="323" x2="840" y2="323" stroke="#1565c0" stroke-width="1.5" stroke-dasharray="6 3"/>
  <text x="48" y="73" font-family="Consolas,monospace" font-size="10" fill="#0d47a1">绕网走廊 Y=+7.05</text>
  <text x="48" y="335" font-family="Consolas,monospace" font-size="10" fill="#0d47a1">绕网走廊 Y=-7.05</text>

  <line x1="440" y1="40" x2="440" y2="360" stroke="#d32f2f" stroke-width="3"/>
  <text x="446" y="38" font-family="Consolas,monospace" font-size="11" font-weight="bold" fill="#b71c1c">球网 X=0</text>
  <circle cx="440" cy="88" r="5" fill="#000"/>
  <circle cx="440" cy="312" r="5" fill="#000"/>
  <text x="448" y="92" font-family="Consolas,monospace" font-size="9" fill="#333">网柱 Y=+6.40</text>
  <text x="448" y="316" font-family="Consolas,monospace" font-size="9" fill="#333">网柱 Y=-6.40</text>

  <rect x="424" y="50" width="32" height="8" fill="#5d4037" stroke="#3e2723" stroke-width="1"/>
  <text x="460" y="58" font-family="Consolas,monospace" font-size="10" fill="#3e2723">长椅 #2  (X=0, Y=+8.345, 1.5×0.4m)</text>
  <rect x="424" y="342" width="32" height="8" fill="#5d4037" stroke="#3e2723" stroke-width="1"/>
  <text x="460" y="354" font-family="Consolas,monospace" font-size="10" fill="#3e2723">长椅 #1  (X=0, Y=-8.345, 1.5×0.4m)</text>

  <rect x="822" y="40" width="18" height="18" fill="#fb8c00" stroke="#e65100" stroke-width="1.5"/>
  <text x="822" y="35" font-family="Consolas,monospace" font-size="10" font-weight="bold" fill="#bf360c">📦 回收仓 Bin</text>
  <text x="690" y="68" font-family="Consolas,monospace" font-size="10" fill="#bf360c">中心 (17.885, 8.645) 0.8×1.0m</text>
  <line x1="780" y1="65" x2="822" y2="50" stroke="#bf360c" stroke-width="1" stroke-dasharray="2 2"/>

  <line x1="495" y1="322" x2="495" y2="78" stroke="#ff5722" stroke-width="2.5" stroke-opacity="0.9"/>
  <line x1="495" y1="78"  x2="640" y2="78" stroke="#ff5722" stroke-width="2.5" stroke-opacity="0.9"/>
  <line x1="640" y1="78"  x2="640" y2="322" stroke="#ff5722" stroke-width="2.5" stroke-opacity="0.9"/>
  <line x1="640" y1="322" x2="807" y2="322" stroke="#ff5722" stroke-width="2.5" stroke-opacity="0.9"/>
  <line x1="807" y1="322" x2="807" y2="78" stroke="#ff5722" stroke-width="2.5" stroke-opacity="0.9"/>
  <polygon points="803,90 811,90 807,80" fill="#ff5722"/>

  <circle cx="495" cy="322" r="11" fill="#ff5722" stroke="#fff" stroke-width="2"/>
  <text x="495" y="326" font-family="Consolas,monospace" font-size="11" font-weight="bold" fill="#fff" text-anchor="middle">0</text>
  <circle cx="495" cy="78"  r="11" fill="#ff5722" stroke="#fff" stroke-width="2"/>
  <text x="495" y="82" font-family="Consolas,monospace" font-size="11" font-weight="bold" fill="#fff" text-anchor="middle">1</text>
  <circle cx="640" cy="78"  r="11" fill="#ff5722" stroke="#fff" stroke-width="2"/>
  <text x="640" y="82" font-family="Consolas,monospace" font-size="11" font-weight="bold" fill="#fff" text-anchor="middle">2</text>
  <circle cx="640" cy="322" r="11" fill="#ff5722" stroke="#fff" stroke-width="2"/>
  <text x="640" y="326" font-family="Consolas,monospace" font-size="11" font-weight="bold" fill="#fff" text-anchor="middle">3</text>
  <circle cx="807" cy="322" r="11" fill="#ff5722" stroke="#fff" stroke-width="2"/>
  <text x="807" y="326" font-family="Consolas,monospace" font-size="11" font-weight="bold" fill="#fff" text-anchor="middle">4</text>
  <circle cx="807" cy="78"  r="11" fill="#ff5722" stroke="#fff" stroke-width="2"/>
  <text x="807" y="82" font-family="Consolas,monospace" font-size="11" font-weight="bold" fill="#fff" text-anchor="middle">5</text>

  <line x1="385" y1="322" x2="385" y2="78" stroke="#8e24aa" stroke-width="2.5" stroke-opacity="0.9"/>
  <line x1="385" y1="78"  x2="240" y2="78" stroke="#8e24aa" stroke-width="2.5" stroke-opacity="0.9"/>
  <line x1="240" y1="78"  x2="240" y2="322" stroke="#8e24aa" stroke-width="2.5" stroke-opacity="0.9"/>
  <line x1="240" y1="322" x2="73"  y2="322" stroke="#8e24aa" stroke-width="2.5" stroke-opacity="0.9"/>
  <line x1="73"  y1="322" x2="73"  y2="78" stroke="#8e24aa" stroke-width="2.5" stroke-opacity="0.9"/>
  <polygon points="69,90 77,90 73,80" fill="#8e24aa"/>

  <circle cx="385" cy="322" r="11" fill="#8e24aa" stroke="#fff" stroke-width="2"/>
  <text x="385" y="326" font-family="Consolas,monospace" font-size="11" font-weight="bold" fill="#fff" text-anchor="middle">0</text>
  <circle cx="385" cy="78"  r="11" fill="#8e24aa" stroke="#fff" stroke-width="2"/>
  <text x="385" y="82" font-family="Consolas,monospace" font-size="11" font-weight="bold" fill="#fff" text-anchor="middle">1</text>
  <circle cx="240" cy="78"  r="11" fill="#8e24aa" stroke="#fff" stroke-width="2"/>
  <text x="240" y="82" font-family="Consolas,monospace" font-size="11" font-weight="bold" fill="#fff" text-anchor="middle">2</text>
  <circle cx="240" cy="322" r="11" fill="#8e24aa" stroke="#fff" stroke-width="2"/>
  <text x="240" y="326" font-family="Consolas,monospace" font-size="11" font-weight="bold" fill="#fff" text-anchor="middle">3</text>
  <circle cx="73"  cy="322" r="11" fill="#8e24aa" stroke="#fff" stroke-width="2"/>
  <text x="73"  y="326" font-family="Consolas,monospace" font-size="11" font-weight="bold" fill="#fff" text-anchor="middle">4</text>
  <circle cx="73"  cy="78"  r="11" fill="#8e24aa" stroke="#fff" stroke-width="2"/>
  <text x="73"  y="82" font-family="Consolas,monospace" font-size="11" font-weight="bold" fill="#fff" text-anchor="middle">5</text>

  <circle cx="374" cy="200" r="6" fill="#1976d2"/>
  <text x="320" y="204" font-family="Consolas,monospace" font-size="10" fill="#0d47a1">绕网起点</text>
  <line x1="374" y1="200" x2="374" y2="80" stroke="#1976d2" stroke-width="2.5"/>
  <polygon points="370,84 378,84 374,76" fill="#1976d2"/>
  <line x1="374" y1="77" x2="504" y2="77" stroke="#1976d2" stroke-width="2.5"/>
  <polygon points="500,73 500,81 508,77" fill="#1976d2"/>
  <text x="320" y="140" font-family="Consolas,monospace" font-size="10" fill="#0d47a1">① 上走廊</text>
  <text x="430" y="70" font-family="Consolas,monospace" font-size="10" fill="#0d47a1">② 横穿球网</text>

  <rect x="20" y="430" width="840" height="44" fill="#fafafa" stroke="#bdbdbd" stroke-width="1"/>
  <circle cx="36" cy="445" r="7" fill="#ff5722"/>
  <text x="50" y="449" font-family="Consolas,monospace" font-size="11" fill="#333">X&gt;0 半场巡视 (0→1→2→3→4→5)</text>
  <circle cx="276" cy="445" r="7" fill="#8e24aa"/>
  <text x="290" y="449" font-family="Consolas,monospace" font-size="11" fill="#333">X&lt;0 半场巡视（镜像）</text>
  <circle cx="468" cy="445" r="6" fill="#1976d2"/>
  <text x="482" y="449" font-family="Consolas,monospace" font-size="11" fill="#333">绕网路径</text>
  <rect x="566" y="441" width="14" height="8" fill="#5d4037"/>
  <text x="586" y="449" font-family="Consolas,monospace" font-size="11" fill="#333">长椅</text>
  <rect x="624" y="439" width="12" height="12" fill="#fb8c00" stroke="#e65100"/>
  <text x="642" y="449" font-family="Consolas,monospace" font-size="11" fill="#333">回收仓</text>
  <text x="36" y="466" font-family="Consolas,monospace" font-size="10" fill="#555">巡视规则：每次进入半场时，比较 YouBot 到点 0 与点 5 的距离，从更近端点开始单程走完 6 个点；途中检测到当前半场内的球立即中断，交还 RL Agent。</text>
</svg>
